<svg width="666" height="89" viewBox="0 0 666 89" fill="none" xmlns="http://www.w3.org/2000/svg">
<path d="M4.33061 88.3264C1.77061 88.3264 0.490606 87.0464 0.490606 84.4864C0.490606 81.9264 1.77061 80.6464 4.33061 80.6464C21.3973 80.6464 33.1306 79.3664 39.5306 76.8064C42.5173 75.6117 44.0106 74.3744 44.0106 73.0944C44.0106 71.8144 42.9439 70.6624 40.8106 69.6384C38.7626 68.6144 35.2639 67.2917 30.3146 65.6704C25.4506 64.0491 21.7386 62.6837 19.1786 61.5744C6.71994 56.3691 0.490606 48.4757 0.490606 37.8944C0.490606 30.9824 3.47727 25.1797 9.45061 20.4864C15.4239 15.7077 22.5919 13.3184 30.9546 13.3184C35.5626 13.3184 39.4026 14.6837 42.4746 17.4144C45.6319 20.1451 47.2106 23.4304 47.2106 27.2704C47.2106 31.1104 45.7173 34.5237 42.7306 37.5104C39.7439 40.4971 37.6959 41.9904 36.5866 41.9904C34.0266 41.9904 32.7466 40.7104 32.7466 38.1504C32.7466 37.0411 33.8559 35.3771 36.0746 33.1584C38.3786 30.8544 39.5306 29.1051 39.5306 27.9104C39.5306 25.8624 38.7199 24.1984 37.0986 22.9184C35.5626 21.6384 33.5573 20.9984 31.0826 20.9984C24.7679 20.9984 19.3493 22.6197 14.8266 25.8624C10.3893 29.0197 8.17061 32.8597 8.17061 37.3824C8.17061 41.9051 9.40794 45.4464 11.8826 48.0064C14.4426 50.5664 17.3013 52.5291 20.4586 53.8944C23.7013 55.1744 26.9439 56.3691 30.1866 57.4784C33.4293 58.5024 36.1173 59.4411 38.2506 60.2944C40.4693 61.0624 42.6879 62.0437 44.9066 63.2384C49.4293 65.7131 51.6906 68.9557 51.6906 72.9664C51.6906 78.1717 47.9359 82.0544 40.4266 84.6144C33.0026 87.0891 20.9706 88.3264 4.33061 88.3264ZM65.8306 52.4864C68.3906 52.4864 69.6706 53.7664 69.6706 56.3264C69.6706 57.3504 69.4573 58.3744 69.0306 59.3984C68.6039 60.4224 68.3906 61.6597 68.3906 63.1104C68.3906 64.4757 68.8173 65.8837 69.6706 67.3344C70.6093 68.7851 71.9319 70.3637 73.6386 72.0704C75.3453 73.6917 77.9053 75.0997 81.3186 76.2944C84.7319 77.4891 88.1453 78.0864 91.5586 78.0864C95.0573 78.0864 98.0439 77.1904 100.519 75.3984C102.993 73.6064 104.231 71.0891 104.231 67.8464C104.231 62.4704 102.993 58.1611 100.519 54.9184C98.0439 51.5904 94.5879 49.9264 90.1506 49.9264C88.1026 49.9264 86.0119 50.5664 83.8786 51.8464C81.8306 53.1264 80.5079 53.7664 79.9106 53.7664C77.3506 53.7664 76.0706 52.4864 76.0706 49.9264C76.0706 48.3051 77.5213 46.6411 80.4226 44.9344C83.4093 43.1424 86.6519 42.2464 90.1506 42.2464C96.6359 42.2464 101.884 44.6357 105.895 49.4144C109.905 54.1077 111.911 60.2517 111.911 67.8464C111.911 73.3077 109.863 77.6597 105.767 80.9024C101.756 84.1451 97.4466 85.7664 92.8386 85.7664C88.2306 85.7664 84.0066 85.2117 80.1666 84.1024C76.4119 82.9077 73.3826 81.4571 71.0786 79.7504C68.7746 77.9584 66.7693 76.0384 65.0626 73.9904C62.1613 70.4064 60.7106 67.1211 60.7106 64.1344C60.7106 61.0624 61.1799 58.3744 62.1186 56.0704C63.0573 53.6811 64.2946 52.4864 65.8306 52.4864ZM149.091 13.3184C149.091 9.73441 147.384 7.94241 143.971 7.94241C141.667 7.94241 139.363 9.26508 137.059 11.9104C134.84 14.4704 133.731 18.4384 133.731 23.8144C133.731 29.1904 134.669 33.2011 136.547 35.8464C144.909 26.7157 149.091 19.2064 149.091 13.3184ZM136.291 48.5184C130.744 55.6011 127.629 59.4411 126.947 60.0384C126.264 60.6357 125.539 60.9344 124.771 60.9344C122.211 60.9344 120.931 59.6544 120.931 57.0944C120.931 56.0704 121.485 54.8757 122.595 53.5104C123.704 52.0597 124.557 50.9504 125.155 50.1824C125.752 49.4144 126.307 48.6891 126.819 48.0064C127.587 46.9824 129.123 45.0624 131.427 42.2464C127.843 37.2117 126.051 31.2384 126.051 24.3264C126.051 19.6331 126.733 15.5797 128.099 12.1664C129.464 8.66774 131.171 6.15041 133.219 4.61441C137.144 1.71308 140.856 0.262413 144.355 0.262413C147.939 0.262413 150.883 1.49975 153.187 3.97441C155.576 6.36374 156.771 9.69174 156.771 13.9584C156.771 18.2251 155.533 22.4917 153.059 26.7584C150.669 31.0251 146.744 36.1877 141.283 42.2464C145.293 47.6224 151.907 53.3397 161.123 59.3984C164.024 61.3611 166.584 63.8784 168.803 66.9504C171.021 69.9371 172.131 73.2224 172.131 76.8064C172.131 80.3904 170.509 83.2064 167.267 85.2544C164.109 87.3024 160.056 88.3264 155.107 88.3264C150.243 88.3264 145.251 87.0464 140.131 84.4864C137.571 83.2917 136.291 82.0117 136.291 80.6464C136.291 78.0864 137.571 76.8064 140.131 76.8064C140.899 76.8064 142.008 77.1477 143.459 77.8304C144.909 78.5131 147 79.1531 149.731 79.7504C152.547 80.3477 154.808 80.6464 156.515 80.6464C158.307 80.6464 160.056 80.3051 161.763 79.6224C163.555 78.9397 164.451 78.0011 164.451 76.8064C164.451 74.5024 163.427 72.2411 161.379 70.0224C159.331 67.7184 156.941 65.7131 154.211 64.0064C151.565 62.2997 148.451 60.0384 144.867 57.2224C141.368 54.3211 138.509 51.4197 136.291 48.5184ZM184.607 71.1744C184.777 70.9184 185.161 69.0837 185.759 65.6704C186.441 62.2571 187.209 58.9291 188.063 55.6864C189.001 52.3584 190.623 49.2864 192.927 46.4704C195.316 43.6544 198.175 42.2464 201.503 42.2464C207.988 42.2464 213.449 43.9531 217.887 47.3664C222.409 50.6944 224.671 55.0037 224.671 60.2944C224.671 65.5851 225.396 70.3211 226.847 74.5024C228.297 78.5984 230.217 80.6464 232.607 80.6464C234.228 80.6464 236.233 80.1344 238.623 79.1104C242.463 77.5744 244.724 76.8064 245.407 76.8064C247.967 76.8064 249.247 78.0864 249.247 80.6464C249.247 82.5237 247.967 83.8891 245.407 84.7424C240.628 87.1317 236.319 88.3264 232.479 88.3264C228.724 88.3264 225.609 86.7477 223.135 83.5904C220.66 80.3477 218.996 76.7637 218.143 72.8384C217.375 68.9131 216.991 64.6891 216.991 60.1664C216.991 57.1797 215.54 54.7477 212.639 52.8704C209.737 50.9077 206.068 49.9264 201.631 49.9264C198.047 49.9264 195.231 55.6437 193.183 67.0784C192.329 71.5157 191.732 74.0757 191.391 74.7584C189.94 77.7451 185.972 80.6464 179.487 83.4624C177.951 84.1451 176.713 84.4864 175.775 84.4864C173.215 84.4864 171.935 83.2064 171.935 80.6464C171.935 79.0251 173.215 77.7024 175.775 76.6784C180.809 74.6304 183.753 72.7957 184.607 71.1744ZM252.324 80.9024C252.238 80.9024 251.598 81.2437 250.404 81.9264C247.332 83.6331 245.07 84.4864 243.62 84.4864C241.06 84.4864 239.78 83.2064 239.78 80.6464C239.78 79.0251 241.06 77.7024 243.62 76.6784C244.046 76.5077 245.07 75.9957 246.692 75.1424C248.313 74.2891 249.252 73.7771 249.508 73.6064C249.166 72.8384 248.996 71.6864 248.996 70.1504C248.996 62.4704 251.684 55.8997 257.06 50.4384C262.436 44.9771 267.342 42.2464 271.78 42.2464C276.217 42.2464 279.716 43.3131 282.276 45.4464C284.836 47.4944 286.116 50.0117 286.116 52.9984C286.116 55.8997 285.433 58.4171 284.068 60.5504C282.702 62.6837 280.569 64.7744 277.668 66.8224C273.657 69.7237 267.812 73.0944 260.132 76.9344C263.545 79.4091 268.281 80.6464 274.34 80.6464C280.398 80.6464 286.372 79.6651 292.26 77.7024C294.052 77.1051 295.076 76.8064 295.332 76.8064C297.892 76.8064 299.172 78.0864 299.172 80.6464C299.172 82.5237 297.892 83.8891 295.332 84.7424C288.164 87.1317 281.252 88.3264 274.596 88.3264C265.124 88.3264 257.7 85.8517 252.324 80.9024ZM256.676 70.1504C271.182 62.8971 278.436 57.4357 278.436 53.7664C278.436 51.2064 276.302 49.9264 272.036 49.9264C269.476 49.9264 266.276 51.9744 262.436 56.0704C258.596 60.0811 256.676 64.7744 256.676 70.1504ZM459.026 58.8864C464.828 58.8864 468.242 62.9824 469.266 71.1744C469.351 71.6011 469.436 72.3691 469.522 73.4784C469.692 74.5024 469.82 75.3131 469.906 75.9104C469.991 76.5077 470.119 76.9771 470.29 77.3184C470.29 77.6597 470.375 78.0011 470.546 78.3424C470.802 79.0251 471.228 79.3664 471.826 79.3664C473.447 79.3664 475.538 78.9397 478.098 78.0864C480.658 77.2331 482.066 76.8064 482.322 76.8064C484.882 76.8064 486.162 78.0864 486.162 80.6464C486.162 82.5237 484.882 83.8891 482.322 84.7424C477.714 86.2784 474.13 87.0464 471.57 87.0464C466.023 87.0464 462.695 82.0971 461.586 72.1984C461.074 68.4437 460.22 66.5664 459.026 66.5664C456.466 66.5664 453.223 69.5531 449.298 75.5264C447.847 77.7451 445.927 79.7931 443.538 81.6704C441.148 83.5477 438.716 84.4864 436.242 84.4864C433.767 84.4864 431.804 83.6331 430.354 81.9264C428.903 80.2197 427.964 78.5984 427.538 77.0624C427.026 75.3557 426.215 71.6437 425.106 65.9264C423.996 60.2091 423.228 57.1797 422.802 56.8384C422.46 56.4971 422.162 56.3264 421.906 56.3264C420.711 56.3264 419.644 57.0944 418.706 58.6304C417.852 60.0811 416.871 62.1291 415.762 64.7744C414.652 67.4197 413.586 70.1504 412.562 72.9664C411.623 75.6971 410.855 77.7451 410.258 79.1104C409.66 80.3904 408.85 81.8837 407.826 83.5904C405.948 86.7477 403.388 88.3264 400.146 88.3264C397.927 88.3264 396.05 87.5584 394.514 86.0224C392.978 84.4864 391.783 82.5237 390.93 80.1344C389.394 75.3557 388.583 70.4917 388.498 65.5424C388.498 60.5077 387.986 56.6677 386.962 54.0224C386.023 51.2917 384.871 49.9264 383.506 49.9264C379.068 49.9264 375.74 52.6571 373.522 58.1184C372.498 60.7637 371.388 64.5184 370.194 69.3824C368.487 75.9531 364.434 80.6037 358.034 83.3344C356.668 84.1024 355.26 84.4864 353.81 84.4864C351.25 84.4864 349.97 83.2064 349.97 80.6464C349.97 79.0251 351.25 77.7024 353.81 76.6784C354.834 76.2517 355.388 76.0384 355.474 76.0384C355.644 75.9531 355.986 75.7824 356.498 75.5264C357.01 75.2704 357.351 75.0997 357.522 75.0144C357.692 74.8437 357.991 74.6304 358.418 74.3744C358.93 74.0331 359.271 73.7344 359.442 73.4784C359.698 73.1371 359.996 72.7531 360.338 72.3264C360.764 71.8997 361.063 71.4731 361.234 71.0464C361.916 69.7664 362.514 68.1024 363.026 66.0544C363.538 64.0064 364.007 62.2997 364.434 60.9344C364.86 59.5691 365.671 57.4784 366.866 54.6624C368.06 51.7611 369.298 49.5851 370.578 48.1344C371.858 46.6837 373.607 45.3611 375.826 44.1664C378.13 42.8864 380.903 42.2464 384.146 42.2464C387.474 42.2464 390.29 44.1664 392.594 48.0064C394.983 51.7611 396.178 57.5211 396.178 65.2864C396.178 68.0171 396.476 71.2597 397.074 75.0144C397.756 78.7691 398.78 80.6464 400.146 80.6464C400.828 80.6464 401.554 79.7504 402.322 77.9584C403.09 76.0811 403.73 74.5024 404.242 73.2224C404.754 71.8571 405.351 70.2357 406.034 68.3584C408.594 61.1051 411.111 56.0277 413.586 53.1264C416.06 50.1397 418.834 48.6464 421.906 48.6464C425.49 48.6464 428.05 50.2677 429.586 53.5104C430.866 56.3264 431.762 59.0997 432.274 61.8304C433.98 71.8144 435.218 76.8064 435.986 76.8064C438.546 76.8064 441.788 73.8197 445.714 67.8464C447.164 65.6277 449.084 63.5797 451.474 61.7024C453.863 59.8251 456.38 58.8864 459.026 58.8864ZM510.354 24.8384C511.719 24.8384 513.127 25.4784 514.578 26.7584C516.028 27.9531 516.754 29.2331 516.754 30.5984C516.754 31.8784 516.156 32.8597 514.962 33.5424C513.852 34.2251 512.615 34.5664 511.25 34.5664C509.884 34.5664 508.732 33.9691 507.794 32.7744C506.94 31.4944 506.514 30.1291 506.514 28.6784C506.514 26.1184 507.794 24.8384 510.354 24.8384ZM498.834 72.4544C494.055 77.5744 489.191 81.2437 484.242 83.4624C482.706 84.1451 481.468 84.4864 480.53 84.4864C477.97 84.4864 476.69 83.2064 476.69 80.6464C476.69 79.0251 477.97 77.7024 480.53 76.6784C481.895 76.1664 483.687 75.1424 485.906 73.6064C488.21 72.0704 489.746 70.9184 490.514 70.1504C491.282 69.3824 492.604 67.9744 494.482 65.9264C496.444 63.8784 497.98 62.3424 499.09 61.3184C500.199 60.2091 501.692 59.0997 503.57 57.9904C505.532 56.8811 507.324 56.3264 508.946 56.3264C512.274 56.3264 514.834 57.5211 516.626 59.9104C518.418 62.2997 519.484 64.9451 519.826 67.8464C520.764 75.5264 522.258 79.3664 524.306 79.3664C525.927 79.3664 528.018 78.9397 530.578 78.0864C533.138 77.2331 534.546 76.8064 534.802 76.8064C537.362 76.8064 538.642 78.0864 538.642 80.6464C538.642 82.5237 537.362 83.8891 534.802 84.7424C530.194 86.2784 526.439 87.0464 523.538 87.0464C520.722 87.0464 518.418 85.8517 516.626 83.4624C514.834 81.0731 513.767 78.4277 513.426 75.5264C512.487 67.8464 510.994 64.0064 508.946 64.0064C507.836 64.0064 506.556 64.7317 505.106 66.1824C503.74 67.5477 502.631 68.6571 501.778 69.5104C500.924 70.2784 499.943 71.2597 498.834 72.4544ZM638.216 58.8864C644.018 58.8864 647.432 62.9824 648.456 71.1744C648.541 71.6011 648.626 72.3691 648.712 73.4784C648.882 74.5024 649.01 75.3131 649.096 75.9104C649.181 76.5077 649.309 76.9771 649.48 77.3184C649.48 77.6597 649.565 78.0011 649.736 78.3424C649.992 79.0251 650.418 79.3664 651.016 79.3664C652.637 79.3664 654.728 78.9397 657.288 78.0864C659.848 77.2331 661.256 76.8064 661.512 76.8064C664.072 76.8064 665.352 78.0864 665.352 80.6464C665.352 82.5237 664.072 83.8891 661.512 84.7424C656.904 86.2784 653.32 87.0464 650.76 87.0464C645.213 87.0464 641.885 82.0971 640.776 72.1984C640.264 68.4437 639.41 66.5664 638.216 66.5664C635.656 66.5664 632.413 69.5531 628.488 75.5264C627.037 77.7451 625.117 79.7931 622.728 81.6704C620.338 83.5477 617.906 84.4864 615.432 84.4864C612.957 84.4864 610.994 83.6331 609.544 81.9264C608.093 80.2197 607.154 78.5984 606.728 77.0624C606.216 75.3557 605.405 71.6437 604.296 65.9264C603.186 60.2091 602.418 57.1797 601.992 56.8384C601.65 56.4971 601.352 56.3264 601.096 56.3264C599.901 56.3264 598.834 57.0944 597.896 58.6304C597.042 60.0811 596.061 62.1291 594.952 64.7744C593.842 67.4197 592.776 70.1504 591.752 72.9664C590.813 75.6971 590.045 77.7451 589.448 79.1104C588.85 80.3904 588.04 81.8837 587.016 83.5904C585.138 86.7477 582.578 88.3264 579.336 88.3264C577.117 88.3264 575.24 87.5584 573.704 86.0224C572.168 84.4864 570.973 82.5237 570.12 80.1344C568.584 75.3557 567.773 70.4917 567.688 65.5424C567.688 60.5077 567.176 56.6677 566.152 54.0224C565.213 51.2917 564.061 49.9264 562.696 49.9264C558.258 49.9264 554.93 52.6571 552.712 58.1184C551.688 60.7637 550.578 64.5184 549.384 69.3824C547.677 75.9531 543.624 80.6037 537.224 83.3344C535.858 84.1024 534.45 84.4864 533 84.4864C530.44 84.4864 529.16 83.2064 529.16 80.6464C529.16 79.0251 530.44 77.7024 533 76.6784C534.024 76.2517 534.578 76.0384 534.664 76.0384C534.834 75.9531 535.176 75.7824 535.688 75.5264C536.2 75.2704 536.541 75.0997 536.712 75.0144C536.882 74.8437 537.181 74.6304 537.608 74.3744C538.12 74.0331 538.461 73.7344 538.632 73.4784C538.888 73.1371 539.186 72.7531 539.528 72.3264C539.954 71.8997 540.253 71.4731 540.424 71.0464C541.106 69.7664 541.704 68.1024 542.216 66.0544C542.728 64.0064 543.197 62.2997 543.624 60.9344C544.05 59.5691 544.861 57.4784 546.056 54.6624C547.25 51.7611 548.488 49.5851 549.768 48.1344C551.048 46.6837 552.797 45.3611 555.016 44.1664C557.32 42.8864 560.093 42.2464 563.336 42.2464C566.664 42.2464 569.48 44.1664 571.784 48.0064C574.173 51.7611 575.368 57.5211 575.368 65.2864C575.368 68.0171 575.666 71.2597 576.264 75.0144C576.946 78.7691 577.97 80.6464 579.336 80.6464C580.018 80.6464 580.744 79.7504 581.512 77.9584C582.28 76.0811 582.92 74.5024 583.432 73.2224C583.944 71.8571 584.541 70.2357 585.224 68.3584C587.784 61.1051 590.301 56.0277 592.776 53.1264C595.25 50.1397 598.024 48.6464 601.096 48.6464C604.68 48.6464 607.24 50.2677 608.776 53.5104C610.056 56.3264 610.952 59.0997 611.464 61.8304C613.17 71.8144 614.408 76.8064 615.176 76.8064C617.736 76.8064 620.978 73.8197 624.904 67.8464C626.354 65.6277 628.274 63.5797 630.664 61.7024C633.053 59.8251 635.57 58.8864 638.216 58.8864Z" fill="#FEFFEF"/>
</svg>
